<?xml version="1.0" encoding="UTF-8"?>
<svg id="Layer_1" data-name="Layer 1" xmlns="http://www.w3.org/2000/svg" viewBox="0 0 841.89 595.28">
  <defs>
    <style>
      .cls-1 {
        fill: #fff;
        stroke-width: 0px;
      }
    </style>
  </defs>
  <polygon class="cls-1" points="489.98 292.15 490.01 292.14 490.01 291.93 489.98 291.94 489.98 292.15"/>
  <g>
    <g>
      <g>
        <path class="cls-1" d="m458.84,305.05c-1.59,0-2.85-.45-3.79-1.35-.94-.9-1.41-2.19-1.41-3.88v-3.09c0-1.69.47-2.98,1.41-3.88.94-.9,2.21-1.35,3.79-1.35s2.81.43,3.67,1.3c.86.87,1.29,2.06,1.29,3.57v.11h-2.19v-.17c0-.82-.23-1.49-.68-2.02-.45-.53-1.15-.79-2.09-.79s-1.64.28-2.17.85c-.53.56-.79,1.34-.79,2.33v3.16c0,.98.26,1.75.79,2.32.53.57,1.25.86,2.17.86s1.64-.26,2.09-.79c.45-.53.68-1.2.68-2.02v-.32h2.19v.26c0,1.51-.43,2.7-1.29,3.57s-2.09,1.3-3.67,1.3Z"/>
        <path class="cls-1" d="m465.98,304.79v-9.18h2.1v1.06h.32c.14-.38.37-.66.69-.84.32-.17.71-.26,1.15-.26h1.12v1.9h-1.15c-.62,0-1.12.16-1.51.49s-.58.83-.58,1.52v5.32h-2.14Z"/>
        <path class="cls-1" d="m477.12,305.05c-.92,0-1.73-.19-2.43-.59-.7-.39-1.25-.94-1.64-1.65-.39-.71-.59-1.55-.59-2.5v-.22c0-.97.19-1.8.58-2.51.38-.71.92-1.26,1.62-1.65.7-.39,1.49-.58,2.4-.58s1.67.19,2.34.58c.67.39,1.19.94,1.56,1.65.37.71.56,1.53.56,2.47v.76h-6.9c.02.72.28,1.3.76,1.73.48.43,1.08.65,1.78.65s1.21-.15,1.54-.46.59-.65.76-1.03l1.77.91c-.17.33-.42.69-.75,1.07-.33.38-.77.7-1.31.97-.54.27-1.23.4-2.06.4Zm-2.47-5.86h4.7c-.05-.61-.28-1.09-.7-1.45-.41-.36-.95-.54-1.61-.54s-1.23.18-1.64.54c-.41.36-.66.84-.76,1.45Z"/>
        <path class="cls-1" d="m486.56,305.05c-.64,0-1.23-.11-1.75-.34-.52-.23-.93-.56-1.24-.99-.3-.43-.46-.97-.46-1.6s.15-1.14.46-1.56c.3-.42.72-.74,1.25-.96s1.14-.33,1.82-.33h2.66v-.56c0-.48-.15-.88-.45-1.18-.3-.3-.76-.46-1.39-.46s-1.09.15-1.4.44c-.32.29-.52.67-.62,1.12l-1.97-.65c.15-.48.39-.92.72-1.32.33-.4.77-.72,1.31-.96.55-.24,1.21-.36,2.01-.36,1.2,0,2.15.3,2.84.9s1.03,1.47,1.03,2.61v3.61c0,.37.17.56.52.56h.78v1.77h-1.51c-.45,0-.81-.11-1.1-.33-.29-.22-.43-.53-.43-.91v-.04h-.32c-.07.17-.2.38-.39.63-.19.25-.47.46-.85.64-.38.18-.89.27-1.53.27Zm.35-1.75c.71,0,1.28-.2,1.73-.6.45-.4.67-.94.67-1.63v-.19h-2.53c-.46,0-.83.1-1.12.3-.28.2-.43.49-.43.87s.15.67.45.9c.3.23.71.34,1.23.34Z"/>
        <path class="cls-1" d="m497.29,304.79c-.6,0-1.07-.18-1.42-.53s-.53-.83-.53-1.44v-5.45h-2.4v-1.77h2.4v-2.96h2.14v2.96h2.64v1.77h-2.64v5.09c0,.37.17.56.52.56h1.84v1.77h-2.55Z"/>
        <path class="cls-1" d="m503.36,294.43c-.38,0-.72-.13-.99-.38-.28-.25-.42-.59-.42-1.01s.14-.76.42-1.01c.28-.25.61-.38.99-.38.41,0,.75.13,1.01.38.27.25.4.59.4,1.01s-.13.76-.4,1.01c-.27.25-.6.38-1.01.38Zm-1.06,10.36v-9.18h2.14v9.18h-2.14Z"/>
        <path class="cls-1" d="m509.17,304.79l-3.01-9.18h2.27l2.27,7.62h.32l2.29-7.62h2.27l-3.01,9.18h-3.38Z"/>
        <path class="cls-1" d="m521.2,305.05c-.92,0-1.73-.19-2.43-.59-.7-.39-1.25-.94-1.64-1.65-.39-.71-.59-1.55-.59-2.5v-.22c0-.97.19-1.8.58-2.51.38-.71.92-1.26,1.62-1.65.7-.39,1.49-.58,2.4-.58s1.67.19,2.34.58c.67.39,1.19.94,1.56,1.65.37.71.56,1.53.56,2.47v.76h-6.9c.02.72.28,1.3.76,1.73.48.43,1.08.65,1.78.65s1.21-.15,1.54-.46.59-.65.76-1.03l1.77.91c-.17.33-.42.69-.75,1.07-.33.38-.77.7-1.31.97-.54.27-1.23.4-2.06.4Zm-2.47-5.86h4.7c-.05-.61-.28-1.09-.7-1.45-.41-.36-.95-.54-1.61-.54s-1.23.18-1.64.54c-.41.36-.66.84-.76,1.45Z"/>
        <path class="cls-1" d="m458.43,322.21c-.99,0-1.87-.18-2.63-.53-.76-.35-1.36-.86-1.79-1.53-.44-.67-.65-1.49-.65-2.45v-.48h2.21v.48c0,.85.26,1.49.78,1.91.52.42,1.21.63,2.08.63s1.54-.18,1.99-.54c.45-.36.67-.82.67-1.39,0-.38-.11-.7-.32-.94-.21-.24-.52-.44-.92-.59-.4-.15-.89-.29-1.46-.43l-.56-.11c-.86-.2-1.6-.45-2.22-.75-.63-.3-1.11-.7-1.44-1.18-.34-.48-.5-1.12-.5-1.9s.19-1.45.56-2.01c.37-.56.9-.99,1.58-1.28s1.48-.45,2.4-.45,1.73.16,2.45.47,1.29.77,1.7,1.39c.41.62.62,1.39.62,2.32v.61h-2.21v-.61c0-.53-.11-.96-.32-1.28-.21-.32-.51-.56-.89-.71-.38-.15-.84-.22-1.36-.22-.77,0-1.35.15-1.75.45s-.59.72-.59,1.26c0,.35.09.64.27.88s.45.44.8.6c.35.15.8.29,1.33.4l.56.13c.89.2,1.67.45,2.34.75.67.3,1.19.7,1.57,1.2.38.5.57,1.14.57,1.93s-.2,1.47-.6,2.06c-.4.6-.97,1.06-1.69,1.39-.73.33-1.58.5-2.58.5Z"/>
        <path class="cls-1" d="m468.83,321.95c-.6,0-1.07-.18-1.42-.53s-.53-.83-.53-1.44v-5.45h-2.4v-1.77h2.4v-2.96h2.14v2.96h2.64v1.77h-2.64v5.09c0,.37.17.56.52.56h1.84v1.77h-2.55Z"/>
        <path class="cls-1" d="m477.34,322.1c-.71,0-1.33-.16-1.88-.47-.55-.32-.97-.76-1.26-1.34s-.45-1.25-.45-2.02v-5.5h2.12v5.34c0,.74.18,1.3.55,1.66.37.36.88.54,1.55.54.76,0,1.35-.25,1.79-.74.44-.5.66-1.21.66-2.14v-4.65h2.12v9.18h-2.08v-1.28h-.32c-.16.33-.46.66-.88.97-.43.31-1.07.47-1.92.47Z"/>
        <path class="cls-1" d="m489.02,322.21c-.74,0-1.44-.18-2.08-.55-.65-.37-1.16-.9-1.54-1.61s-.58-1.56-.58-2.55v-.3c0-.99.19-1.84.58-2.55s.9-1.24,1.53-1.61c.64-.37,1.34-.55,2.09-.55.57,0,1.05.07,1.45.2.4.14.72.31.96.52.24.21.43.44.57.69h.32v-4.98h2.12v13.01h-2.08v-1.21h-.32c-.22.37-.56.71-1.02,1.01-.46.3-1.12.46-1.99.46Zm.63-1.86c.77,0,1.41-.25,1.91-.75s.76-1.22.76-2.15v-.19c0-.94-.25-1.66-.75-2.16-.5-.5-1.14-.74-1.92-.74s-1.41.25-1.92.74-.77,1.21-.77,2.16v.19c0,.93.26,1.65.77,2.15s1.16.75,1.92.75Z"/>
        <path class="cls-1" d="m498.2,311.59c-.38,0-.72-.13-.99-.38-.28-.25-.42-.59-.42-1.01s.14-.76.42-1.01c.28-.25.61-.38.99-.38.41,0,.75.13,1.01.38s.4.59.4,1.01-.13.76-.4,1.01-.6.38-1.01.38Zm-1.06,10.36v-9.18h2.14v9.18h-2.14Z"/>
        <path class="cls-1" d="m506.35,322.21c-.92,0-1.74-.19-2.46-.57-.73-.38-1.3-.92-1.71-1.62-.41-.7-.62-1.54-.62-2.52v-.3c0-.98.21-1.82.62-2.53.42-.71.99-1.25,1.71-1.62.72-.37,1.55-.56,2.46-.56s1.73.19,2.45.56,1.29.91,1.7,1.62c.41.71.62,1.55.62,2.53v.3c0,.98-.21,1.82-.62,2.52-.42.7-.98,1.24-1.7,1.62-.72.38-1.54.57-2.45.57Zm0-1.9c.78,0,1.42-.25,1.91-.75s.74-1.21.74-2.11v-.19c0-.9-.25-1.61-.74-2.11s-1.13-.75-1.91-.75-1.42.25-1.92.75-.74,1.21-.74,2.11v.19c0,.9.25,1.61.74,2.11s1.13.75,1.92.75Z"/>
      </g>
      <g>
        <polygon class="cls-1" points="511.13 309.51 512.23 309.51 512.23 312.64 513.05 312.64 513.05 309.51 514.17 309.51 514.17 308.8 511.13 308.8 511.13 309.51"/>
        <polygon class="cls-1" points="517.78 308.8 516.75 311.62 515.68 308.8 514.6 308.8 514.6 312.64 515.39 312.64 515.39 310.07 516.38 312.64 517.05 312.64 518.05 310.07 518.05 312.64 518.83 312.64 518.83 308.8 517.78 308.8"/>
      </g>
    </g>
    <g>
      <path class="cls-1" d="m373.59,291.5h-45.35v-18.46h-11.96v49.18h12.06v-18.52h45.52v18.55h12.03v-49.2h-12.3v18.45Z"/>
      <path class="cls-1" d="m396.8,284.41h39.26v1.37l-.61.06-28.54,2.55c-2.26.2-4.51.75-6.52,1.81-1.28.67-2.44,1.49-3.45,2.44-2.63,2.41-4.31,5.65-5,9.61-.2,1.16-.31,2.31-.31,3.42,0,5.41,2.47,10.03,7.12,13.36,2.22,1.59,4.55,2.62,6.92,3.09.97.19,1.97.28,2.96.28,1.91,0,3.88-.37,5.92-1.14l20.9-11.98v12.96h12.3v-49.36h-50.95v11.53Zm14.1,25.39c-.79.45-1.68.69-2.57.69-.99,0-1.94-.29-2.72-.84l-.05-.04c-1.51-1.06-2.28-2.49-2.28-4.25,0-.41.05-.84.13-1.28.41-2.19,1.83-3.68,3.98-4.19,2.15-.49,4.33-.87,6.45-1.23l21.61-3.9.61-.11v1.93l-.61.35-24.55,12.87Z"/>
    </g>
  </g>
</svg>