<?xml version="1.0" encoding="UTF-8"?>
<svg id="Layer_1" data-name="Layer 1" xmlns="http://www.w3.org/2000/svg" viewBox="0 0 1080 1080">
  <defs>
    <style>
      .cls-1 {
        fill: #f15b5f;
      }

      .cls-1, .cls-2 {
        stroke-width: 0px;
      }

      .cls-2 {
        fill: #fff;
      }
    </style>
  </defs>
  <polygon class="cls-2" points="628.18 532.99 628.22 532.98 628.22 532.7 628.18 532.72 628.18 532.99"/>
  <g>
    <g>
      <polygon class="cls-1" points="789.52 442.75 797.16 442.75 797.16 464.36 802.83 464.36 802.83 442.75 810.52 442.75 810.52 437.87 789.52 437.87 789.52 442.75"/>
      <polygon class="cls-1" points="835.45 437.87 828.34 457.32 821 437.87 813.55 437.87 813.55 464.36 818.96 464.36 818.96 446.61 825.85 464.36 830.46 464.36 837.35 446.61 837.35 464.36 842.76 464.36 842.76 437.87 835.45 437.87"/>
    </g>
    <g>
      <path class="cls-1" d="m473.63,514.67h-187.06v-76.14h-49.32v202.84h49.76v-76.39h187.75v76.53h49.61v-202.94h-50.74v76.1Z"/>
      <path class="cls-1" d="m569.35,485.43h161.94v5.63l-2.52.26-117.71,10.54c-9.34.84-18.58,3.1-26.89,7.46-5.3,2.78-10.06,6.13-14.25,10.05-10.85,9.94-17.78,23.3-20.62,39.64-.82,4.78-1.28,9.53-1.28,14.11,0,22.31,10.19,41.37,29.37,55.11,9.16,6.56,18.77,10.81,28.54,12.75,4,.78,8.13,1.16,12.21,1.16,7.88,0,16-1.53,24.42-4.7l86.21-49.41v53.46h50.73v-203.6h-210.15v47.56Zm58.16,104.73c-3.26,1.86-6.93,2.85-10.6,2.85-4.08,0-8-1.2-11.22-3.46l-.21-.17c-6.23-4.37-9.4-10.27-9.4-17.53,0-1.69.21-3.46.54-5.28,1.69-9.03,7.55-15.18,16.42-17.28,8.87-2.02,17.86-3.59,26.6-5.07l89.14-16.09,2.52-.45v7.98l-2.52,1.44-101.26,53.06Z"/>
    </g>
  </g>
</svg>