<?xml version="1.0" encoding="UTF-8"?>
<svg id="Layer_1" data-name="Layer 1" xmlns="http://www.w3.org/2000/svg" viewBox="0 0 841.89 595.28">
  <defs>
    <style>
      .cls-1 {
        letter-spacing: -.02em;
      }

      .cls-2 {
        letter-spacing: -.04em;
      }

      .cls-3 {
        stroke-width: 0px;
      }

      .cls-3, .cls-4 {
        fill: #f15b5f;
      }

      .cls-4 {
        font-family: SpaceGrotesk-Bold, 'Space Grotesk';
        font-size: 16.07px;
        font-weight: 700;
      }

      .cls-5 {
        letter-spacing: -.01em;
      }

      .cls-6 {
        letter-spacing: 0em;
      }
    </style>
  </defs>
  <text class="cls-4" transform="translate(484.98 307.07)"><tspan x="0" y="0">C</tspan><tspan class="cls-1" x="10.35" y="0">r</tspan><tspan x="16.42" y="0">e</tspan><tspan class="cls-2" x="25.69" y="0">a</tspan><tspan x="34.4" y="0">ti</tspan><tspan class="cls-5" x="46" y="0">v</tspan><tspan class="cls-6" x="54.58" y="0">e</tspan><tspan x="0" y="14.83">Studio</tspan></text>
  <g>
    <path class="cls-3" d="m405.61,291.5h-45.35v-18.46h-11.96v49.18h12.06v-18.52h45.52v18.55h12.03v-49.2h-12.3v18.45Z"/>
    <polygon class="cls-3" points="489.98 292.15 490.01 292.14 490.01 291.93 489.98 291.94 489.98 292.15"/>
    <g>
      <polygon class="cls-3" points="482.87 273.86 484.41 273.86 484.41 278.21 485.55 278.21 485.55 273.86 487.09 273.86 487.09 272.88 482.87 272.88 482.87 273.86"/>
      <polygon class="cls-3" points="492.11 272.88 490.68 276.79 489.21 272.88 487.71 272.88 487.71 278.21 488.79 278.21 488.79 274.64 490.18 278.21 491.11 278.21 492.5 274.64 492.5 278.21 493.58 278.21 493.58 272.88 492.11 272.88"/>
    </g>
    <path class="cls-3" d="m428.82,284.41h39.26v1.37l-.61.06-28.54,2.55c-2.26.2-4.51.75-6.52,1.81-1.28.67-2.44,1.49-3.45,2.44-2.63,2.41-4.31,5.65-5,9.61-.2,1.16-.31,2.31-.31,3.42,0,5.41,2.47,10.03,7.12,13.36,2.22,1.59,4.55,2.62,6.92,3.09.97.19,1.97.28,2.96.28,1.91,0,3.88-.37,5.92-1.14l20.9-11.98v12.96h12.3v-49.36h-50.95v11.53Zm14.1,25.39c-.79.45-1.68.69-2.57.69-.99,0-1.94-.29-2.72-.84l-.05-.04c-1.51-1.06-2.28-2.49-2.28-4.25,0-.41.05-.84.13-1.28.41-2.19,1.83-3.68,3.98-4.19,2.15-.49,4.33-.87,6.45-1.23l21.61-3.9.61-.11v1.93l-.61.35-24.55,12.87Z"/>
  </g>
</svg>